# xmcd CD database file
#
# Track frame offsets:
#	150
#	54144
#	102155
#	154332
#	227538
#	282177
#
# Disc length: 4659 seconds
#
# Revision: 2
# Processed by: cddbd v1.5.2PL0 Copyright (c) Steve Scherf et al.
# Submitted via: CDex 1.51
#
DISCID=41123106
DTITLE=Brad Mehldau - Brad Mehldau Trio Live 2
DYEAR=2008
DGENRE=Jazz
TTITLE0=Buddha Realm
TTITLE1=Fat Kid
TTITLE2=Secret Beach
TTITLE3=C.T.A.
TTITLE4=More Than You Know
TTITLE5=Countdown
EXTD=YEAR: 2008
EXTT0=
EXTT1=
EXTT2=
EXTT3=
EXTT4=
EXTT5=
PLAYORDER=
